<!-- Generated by IcoMoon.io -->
<svg version="1.1" xmlns="http://www.w3.org/2000/svg" width="1024" height="1024" viewBox="0 0 1024 1024">
<title></title>
<g id="icomoon-ignore">
</g>
<path d="M398.709 232.448h225.591c91.674 0 166.259 74.588 166.259 166.261v225.591c0 91.689-74.571 166.261-166.259 166.261h-225.591c-91.674 0-166.261-74.573-166.261-166.261v-225.591c0-91.674 74.588-166.261 166.261-166.261zM624.318 734.423c60.802 0 110.106-49.301 110.106-110.108v-225.591c0-60.821-49.303-110.123-110.106-110.123h-225.594c-60.821 0-110.123 49.301-110.123 110.123v225.591c0 60.806 49.301 110.108 110.123 110.108h225.594z"></path>
<path d="M367.166 511.509c0-79.595 64.759-144.354 144.354-144.354 79.597 0 144.352 64.759 144.352 144.354s-64.755 144.339-144.352 144.339c-79.595 0-144.354-64.745-144.354-144.339zM423.322 511.509c0 48.715 39.486 88.201 88.198 88.201s88.201-39.486 88.201-88.201c0-48.71-39.488-88.198-88.201-88.198s-88.198 39.488-88.198 88.198z"></path>
<path d="M656.132 402.835c19.102 0 34.59-15.486 34.59-34.59s-15.488-34.59-34.59-34.59c-19.106 0-34.59 15.486-34.59 34.59s15.484 34.59 34.59 34.59z"></path>
</svg>
