<!-- Generated by IcoMoon.io -->
<svg version="1.1" xmlns="http://www.w3.org/2000/svg" width="1024" height="1024" viewBox="0 0 1024 1024">
<title></title>
<g id="icomoon-ignore">
</g>
<path d="M482.822 643.147c-45.95-4.698-87.379-15.795-122.85-43.004-4.401-3.388-8.945-6.65-12.962-10.43-15.526-14.624-17.090-31.371-4.804-48.631 10.509-14.769 28.151-18.72 46.49-10.238 3.55 1.643 6.933 3.695 10.174 5.899 66.106 44.544 156.919 45.775 223.273 2.001 6.573-4.943 13.6-8.973 21.747-11.031 15.836-3.987 30.605 1.719 39.102 15.307 9.709 15.518 9.583 30.665-2.377 42.714-18.353 18.47-40.42 31.834-64.941 41.163-23.185 8.813-48.58 13.252-73.717 16.198 3.793 4.049 5.581 6.039 7.953 8.378 34.129 33.632 68.41 67.121 102.428 100.853 11.59 11.494 14.010 25.747 7.631 39.115-6.98 14.613-22.596 24.226-37.914 23.198-9.702-0.659-17.269-5.395-23.991-12.036-25.756-25.417-51.996-50.368-77.231-76.267-7.343-7.531-10.876-6.106-17.357 0.433-25.911 26.161-52.243 51.919-78.733 77.532-11.893 11.501-26.048 13.57-39.84 7.002-14.662-6.97-23.994-21.651-23.273-36.401 0.495-9.978 5.5-17.598 12.482-24.437 33.777-33.075 67.46-66.238 101.156-99.369 2.227-2.204 4.307-4.544 7.554-7.947z"></path>
<path d="M361.419 367.362c-0.474 86.863 67.078 158.765 149.476 159.061 83.228 0.297 151.251-69.967 151.682-156.659 0.416-88.738-66.5-160.529-149.875-160.764-83.2-0.25-150.81 70.528-151.283 158.361zM512.094 290.061c40.905 0.047 73.532 34.374 73.681 77.502 0.132 43.13-32.422 77.692-73.295 77.847-41.007 0.156-73.918-33.937-74.227-76.911-0.311-43.518 32.612-78.485 73.841-78.438z"></path>
</svg>
