<!-- Generated by IcoMoon.io -->
<svg version="1.1" xmlns="http://www.w3.org/2000/svg" width="1024" height="1024" viewBox="0 0 1024 1024">
<title></title>
<g id="icomoon-ignore">
</g>
<path d="M814.758 512.004c0 167.206-135.548 302.754-302.754 302.754s-302.754-135.548-302.754-302.754c0-167.206 135.548-302.754 302.754-302.754s302.754 135.548 302.754 302.754zM522.861 432.77c-29.449 12.247-88.301 37.598-176.561 76.051-14.332 5.698-21.839 11.275-22.522 16.725-1.156 9.214 10.383 12.843 26.095 17.783 2.138 0.672 4.352 1.367 6.622 2.106 15.458 5.026 36.252 10.903 47.061 11.138 9.805 0.211 20.749-3.831 32.832-12.128 82.464-55.665 125.030-83.802 127.703-84.407 1.886-0.429 4.499-0.966 6.268 0.608 1.771 1.572 1.598 4.553 1.41 5.353-1.143 4.873-46.434 46.98-69.873 68.77-7.307 6.793-12.491 11.612-13.549 12.71-2.374 2.466-4.794 4.798-7.117 7.040-14.362 13.843-25.131 24.224 0.595 41.178 12.363 8.147 22.257 14.884 32.126 21.606 10.778 7.339 21.53 14.66 35.439 23.778 3.543 2.323 6.929 4.736 10.225 7.087 12.544 8.943 23.812 16.977 37.737 15.695 8.090-0.745 16.446-8.352 20.689-31.038 10.031-53.619 29.745-169.792 34.302-217.666 0.399-4.194-0.105-9.562-0.508-11.917-0.403-2.357-1.246-5.715-4.309-8.201-3.627-2.942-9.227-3.563-11.731-3.52-11.388 0.201-28.858 6.276-112.934 41.248z"></path>
</svg>
