<!-- Generated by IcoMoon.io -->
<svg version="1.1" xmlns="http://www.w3.org/2000/svg" width="1024" height="1024" viewBox="0 0 1024 1024">
<title></title>
<g id="icomoon-ignore">
</g>
<path d="M777.762 335.209c-19.917 8.631-41.346 14.47-63.814 17.077 22.942-13.434 40.548-34.69 48.858-60.060-21.466 12.448-45.252 21.476-70.547 26.342-20.269-21.094-49.143-34.276-81.118-34.276-61.344 0-111.1 48.625-111.1 108.578 0 8.51 0.988 16.794 2.893 24.747-92.335-4.527-174.204-47.753-229.003-113.461-9.562 16.032-15.046 34.697-15.046 54.592 0 37.662 19.629 70.91 49.423 90.377-18.204-0.559-35.347-5.442-50.319-13.596-0.009 0.461-0.009 0.922-0.009 1.376 0 52.61 38.313 96.491 89.129 106.458-9.314 2.494-19.149 3.814-29.265 3.814-7.174 0-14.127-0.672-20.905-1.935 14.135 43.125 55.157 74.519 103.785 75.403-38.031 29.126-85.929 46.479-137.995 46.479-8.949 0-17.813-0.51-26.49-1.521 49.141 30.816 107.554 48.787 170.291 48.787 204.354 0 316.109-165.449 316.109-308.943 0-4.704-0.107-9.393-0.322-14.042 21.724-15.305 40.557-34.421 55.445-56.196z"></path>
</svg>
