<!-- Generated by IcoMoon.io -->
<svg version="1.1" xmlns="http://www.w3.org/2000/svg" width="1024" height="1024" viewBox="0 0 1024 1024">
<title></title>
<g id="icomoon-ignore">
</g>
<path d="M506.411 681.641h38.662c0 0 11.68-1.212 17.641-7.287 5.489-5.581 5.312-16.055 5.312-16.055s-0.755-49.052 23.324-56.273c23.733-7.117 54.21 47.405 86.515 68.369 24.427 15.863 42.991 12.384 42.991 12.384l86.377-1.137c0 0 45.184-2.63 23.759-36.22-1.756-2.75-12.476-24.851-64.222-70.263-54.159-47.531-46.906-39.844 18.334-122.061 39.733-50.071 55.618-80.64 50.658-93.734-4.734-12.469-33.956-9.173-33.956-9.173l-97.254 0.572c0 0-7.209-0.928-12.557 2.093-5.225 2.965-8.587 9.871-8.587 9.871s-15.394 38.748-35.923 71.699c-43.307 69.532-60.623 73.201-67.701 68.885-16.461-10.063-12.354-40.425-12.354-61.995 0-67.381 10.81-95.475-21.047-102.748-10.573-2.417-18.351-4.011-45.387-4.269-34.701-0.339-64.073 0.1-80.704 7.804-11.063 5.124-19.599 16.54-14.4 17.195 6.428 0.813 20.986 3.712 28.704 13.649 9.967 12.819 9.615 41.611 9.615 41.611s5.726 79.322-13.374 89.175c-13.109 6.758-31.091-7.040-69.7-70.121-19.785-32.314-34.72-68.030-34.72-68.030s-2.88-6.675-8.017-10.244c-6.234-4.326-14.944-5.705-14.944-5.705l-92.418 0.574c0 0-13.873 0.365-18.966 6.069-4.531 5.071-0.36 15.565-0.36 15.565s72.354 160.053 154.278 240.71c75.119 73.948 160.422 69.090 160.422 69.090z"></path>
</svg>
