<!-- Generated by IcoMoon.io -->
<svg version="1.1" xmlns="http://www.w3.org/2000/svg" width="1024" height="1024" viewBox="0 0 1024 1024">
<title></title>
<g id="icomoon-ignore">
</g>
<path d="M852.727 377.257c0 0-6.79-46.47-27.703-66.876-26.481-26.854-56.087-26.987-69.666-28.567-97.235-6.844-243.223-6.844-243.223-6.844h-0.271c0 0-145.988 0-243.223 6.844-13.581 1.581-43.185 1.713-69.667 28.567-20.914 20.405-27.568 66.876-27.568 66.876s-7.062 54.633-7.062 109.135v51.078c0 54.5 6.926 109.135 6.926 109.135s6.79 46.47 27.568 66.876c26.481 26.854 61.248 25.933 76.729 28.83 55.678 5.133 236.431 6.714 236.431 6.714s146.125-0.262 243.36-6.978c13.579-1.579 43.185-1.711 69.666-28.565 20.913-20.405 27.703-66.876 27.703-66.876s6.925-54.502 6.925-109.135v-51.078c0-54.502-6.925-109.135-6.925-109.135zM440.16 599.475v-189.438l187.814 95.049-187.814 94.389z"></path>
</svg>
